<mxfile host="app.diagrams.net" agent="Mozilla/5.0 (X11; Linux x86_64) AppleWebKit/537.36 (KHTML, like Gecko) Chrome/132.0.0.0 Safari/537.36" version="26.2.14">
  <diagram id="C5RBs43oDa-KdzZeNtuy" name="Page-1">
    <mxGraphModel dx="1026" dy="604" grid="1" gridSize="10" guides="1" tooltips="1" connect="1" arrows="1" fold="1" page="1" pageScale="1" pageWidth="827" pageHeight="1169" math="0" shadow="0">
      <root>
        <mxCell id="WIyWlLk6GJQsqaUBKTNV-0" />
        <mxCell id="WIyWlLk6GJQsqaUBKTNV-1" parent="WIyWlLk6GJQsqaUBKTNV-0" />
        <mxCell id="QfECR-KnakWeRakG1wzW-8" style="rounded=0;orthogonalLoop=1;jettySize=auto;html=1;elbow=vertical;" edge="1" parent="WIyWlLk6GJQsqaUBKTNV-1" source="QfECR-KnakWeRakG1wzW-1" target="QfECR-KnakWeRakG1wzW-4">
          <mxGeometry relative="1" as="geometry" />
        </mxCell>
        <mxCell id="QfECR-KnakWeRakG1wzW-9" style="rounded=0;orthogonalLoop=1;jettySize=auto;html=1;elbow=vertical;" edge="1" parent="WIyWlLk6GJQsqaUBKTNV-1" source="QfECR-KnakWeRakG1wzW-1" target="QfECR-KnakWeRakG1wzW-3">
          <mxGeometry relative="1" as="geometry" />
        </mxCell>
        <mxCell id="QfECR-KnakWeRakG1wzW-12" style="rounded=0;orthogonalLoop=1;jettySize=auto;html=1;elbow=vertical;" edge="1" parent="WIyWlLk6GJQsqaUBKTNV-1" source="QfECR-KnakWeRakG1wzW-1" target="QfECR-KnakWeRakG1wzW-11">
          <mxGeometry relative="1" as="geometry" />
        </mxCell>
        <mxCell id="QfECR-KnakWeRakG1wzW-15" style="rounded=0;orthogonalLoop=1;jettySize=auto;html=1;entryX=1;entryY=0.5;entryDx=0;entryDy=0;elbow=vertical;exitX=0;exitY=1;exitDx=0;exitDy=0;" edge="1" parent="WIyWlLk6GJQsqaUBKTNV-1" source="QfECR-KnakWeRakG1wzW-1" target="QfECR-KnakWeRakG1wzW-14">
          <mxGeometry relative="1" as="geometry">
            <mxPoint x="420" y="290" as="sourcePoint" />
            <mxPoint x="120" y="260" as="targetPoint" />
          </mxGeometry>
        </mxCell>
        <mxCell id="QfECR-KnakWeRakG1wzW-18" style="rounded=0;orthogonalLoop=1;jettySize=auto;html=1;elbow=vertical;" edge="1" parent="WIyWlLk6GJQsqaUBKTNV-1" source="QfECR-KnakWeRakG1wzW-1" target="QfECR-KnakWeRakG1wzW-17">
          <mxGeometry relative="1" as="geometry" />
        </mxCell>
        <mxCell id="QfECR-KnakWeRakG1wzW-20" style="rounded=0;orthogonalLoop=1;jettySize=auto;html=1;entryX=1;entryY=0.5;entryDx=0;entryDy=0;elbow=vertical;" edge="1" parent="WIyWlLk6GJQsqaUBKTNV-1" source="QfECR-KnakWeRakG1wzW-1" target="QfECR-KnakWeRakG1wzW-19">
          <mxGeometry relative="1" as="geometry" />
        </mxCell>
        <mxCell id="QfECR-KnakWeRakG1wzW-22" style="rounded=0;orthogonalLoop=1;jettySize=auto;html=1;elbow=vertical;" edge="1" parent="WIyWlLk6GJQsqaUBKTNV-1" source="QfECR-KnakWeRakG1wzW-1" target="QfECR-KnakWeRakG1wzW-21">
          <mxGeometry relative="1" as="geometry" />
        </mxCell>
        <mxCell id="QfECR-KnakWeRakG1wzW-1" value="user" style="html=1;dashed=0;whiteSpace=wrap;" vertex="1" parent="WIyWlLk6GJQsqaUBKTNV-1">
          <mxGeometry x="390" y="250" width="100" height="50" as="geometry" />
        </mxCell>
        <mxCell id="QfECR-KnakWeRakG1wzW-3" value="email" style="ellipse;whiteSpace=wrap;html=1;align=center;aspect=fixed;fontSize=10;" vertex="1" parent="WIyWlLk6GJQsqaUBKTNV-1">
          <mxGeometry x="50" y="346" width="80" height="32" as="geometry" />
        </mxCell>
        <mxCell id="QfECR-KnakWeRakG1wzW-4" value="id" style="ellipse;whiteSpace=wrap;html=1;align=center;fontStyle=4;aspect=fixed;fontSize=10;fillColor=#000000;fontColor=#FFFFFF;" vertex="1" parent="WIyWlLk6GJQsqaUBKTNV-1">
          <mxGeometry x="70" y="129" width="80" height="32" as="geometry" />
        </mxCell>
        <mxCell id="QfECR-KnakWeRakG1wzW-11" value="username" style="ellipse;whiteSpace=wrap;html=1;align=center;aspect=fixed;fontSize=10;" vertex="1" parent="WIyWlLk6GJQsqaUBKTNV-1">
          <mxGeometry x="50" y="216" width="80" height="32" as="geometry" />
        </mxCell>
        <mxCell id="QfECR-KnakWeRakG1wzW-14" value="first_name" style="ellipse;whiteSpace=wrap;html=1;align=center;aspect=fixed;fontSize=10;" vertex="1" parent="WIyWlLk6GJQsqaUBKTNV-1">
          <mxGeometry x="60" y="389" width="80" height="32" as="geometry" />
        </mxCell>
        <mxCell id="QfECR-KnakWeRakG1wzW-17" value="created_at" style="ellipse;whiteSpace=wrap;html=1;align=center;aspect=fixed;fontSize=10;" vertex="1" parent="WIyWlLk6GJQsqaUBKTNV-1">
          <mxGeometry x="40" y="300" width="80" height="32" as="geometry" />
        </mxCell>
        <mxCell id="QfECR-KnakWeRakG1wzW-19" value="last_name" style="ellipse;whiteSpace=wrap;html=1;align=center;aspect=fixed;fontSize=10;" vertex="1" parent="WIyWlLk6GJQsqaUBKTNV-1">
          <mxGeometry x="60" y="172" width="80" height="32" as="geometry" />
        </mxCell>
        <mxCell id="QfECR-KnakWeRakG1wzW-21" value="status" style="ellipse;whiteSpace=wrap;html=1;align=center;aspect=fixed;fontSize=10;" vertex="1" parent="WIyWlLk6GJQsqaUBKTNV-1">
          <mxGeometry x="40" y="259" width="80" height="32" as="geometry" />
        </mxCell>
        <mxCell id="QfECR-KnakWeRakG1wzW-42" style="rounded=0;orthogonalLoop=1;jettySize=auto;html=1;entryX=0.5;entryY=1;entryDx=0;entryDy=0;" edge="1" parent="WIyWlLk6GJQsqaUBKTNV-1" source="QfECR-KnakWeRakG1wzW-24" target="QfECR-KnakWeRakG1wzW-41">
          <mxGeometry relative="1" as="geometry" />
        </mxCell>
        <mxCell id="QfECR-KnakWeRakG1wzW-46" style="rounded=0;orthogonalLoop=1;jettySize=auto;html=1;" edge="1" parent="WIyWlLk6GJQsqaUBKTNV-1" source="QfECR-KnakWeRakG1wzW-24" target="QfECR-KnakWeRakG1wzW-43">
          <mxGeometry relative="1" as="geometry" />
        </mxCell>
        <mxCell id="QfECR-KnakWeRakG1wzW-47" style="rounded=0;orthogonalLoop=1;jettySize=auto;html=1;" edge="1" parent="WIyWlLk6GJQsqaUBKTNV-1" source="QfECR-KnakWeRakG1wzW-24" target="QfECR-KnakWeRakG1wzW-44">
          <mxGeometry relative="1" as="geometry" />
        </mxCell>
        <mxCell id="QfECR-KnakWeRakG1wzW-49" style="rounded=0;orthogonalLoop=1;jettySize=auto;html=1;" edge="1" parent="WIyWlLk6GJQsqaUBKTNV-1" source="QfECR-KnakWeRakG1wzW-24" target="QfECR-KnakWeRakG1wzW-48">
          <mxGeometry relative="1" as="geometry" />
        </mxCell>
        <mxCell id="QfECR-KnakWeRakG1wzW-59" style="rounded=0;orthogonalLoop=1;jettySize=auto;html=1;" edge="1" parent="WIyWlLk6GJQsqaUBKTNV-1" source="QfECR-KnakWeRakG1wzW-24" target="QfECR-KnakWeRakG1wzW-58">
          <mxGeometry relative="1" as="geometry" />
        </mxCell>
        <mxCell id="QfECR-KnakWeRakG1wzW-24" value="team" style="whiteSpace=wrap;html=1;dashed=0;" vertex="1" parent="WIyWlLk6GJQsqaUBKTNV-1">
          <mxGeometry x="933" y="250" width="100" height="50" as="geometry" />
        </mxCell>
        <mxCell id="QfECR-KnakWeRakG1wzW-38" style="rounded=0;orthogonalLoop=1;jettySize=auto;html=1;" edge="1" parent="WIyWlLk6GJQsqaUBKTNV-1" source="QfECR-KnakWeRakG1wzW-31" target="QfECR-KnakWeRakG1wzW-36">
          <mxGeometry relative="1" as="geometry" />
        </mxCell>
        <mxCell id="QfECR-KnakWeRakG1wzW-64" style="rounded=0;orthogonalLoop=1;jettySize=auto;html=1;" edge="1" parent="WIyWlLk6GJQsqaUBKTNV-1" source="QfECR-KnakWeRakG1wzW-31" target="QfECR-KnakWeRakG1wzW-62">
          <mxGeometry relative="1" as="geometry" />
        </mxCell>
        <mxCell id="QfECR-KnakWeRakG1wzW-65" style="rounded=0;orthogonalLoop=1;jettySize=auto;html=1;" edge="1" parent="WIyWlLk6GJQsqaUBKTNV-1" source="QfECR-KnakWeRakG1wzW-31" target="QfECR-KnakWeRakG1wzW-63">
          <mxGeometry relative="1" as="geometry" />
        </mxCell>
        <mxCell id="QfECR-KnakWeRakG1wzW-67" style="rounded=0;orthogonalLoop=1;jettySize=auto;html=1;" edge="1" parent="WIyWlLk6GJQsqaUBKTNV-1" source="QfECR-KnakWeRakG1wzW-31" target="QfECR-KnakWeRakG1wzW-66">
          <mxGeometry relative="1" as="geometry" />
        </mxCell>
        <mxCell id="QfECR-KnakWeRakG1wzW-31" value="has" style="shape=rhombus;perimeter=rhombusPerimeter;whiteSpace=wrap;html=1;align=center;" vertex="1" parent="WIyWlLk6GJQsqaUBKTNV-1">
          <mxGeometry x="660" y="245" width="120" height="60" as="geometry" />
        </mxCell>
        <mxCell id="QfECR-KnakWeRakG1wzW-32" value="" style="endArrow=none;html=1;rounded=0;entryX=0;entryY=0.5;entryDx=0;entryDy=0;exitX=1;exitY=0.5;exitDx=0;exitDy=0;" edge="1" parent="WIyWlLk6GJQsqaUBKTNV-1" source="QfECR-KnakWeRakG1wzW-1" target="QfECR-KnakWeRakG1wzW-31">
          <mxGeometry relative="1" as="geometry">
            <mxPoint x="490" y="270" as="sourcePoint" />
            <mxPoint x="650" y="270" as="targetPoint" />
          </mxGeometry>
        </mxCell>
        <mxCell id="QfECR-KnakWeRakG1wzW-33" value="1" style="resizable=0;html=1;whiteSpace=wrap;align=right;verticalAlign=bottom;" connectable="0" vertex="1" parent="QfECR-KnakWeRakG1wzW-32">
          <mxGeometry x="1" relative="1" as="geometry">
            <mxPoint x="-70" as="offset" />
          </mxGeometry>
        </mxCell>
        <mxCell id="QfECR-KnakWeRakG1wzW-34" value="" style="endArrow=none;html=1;rounded=0;exitX=1;exitY=0.5;exitDx=0;exitDy=0;entryX=0;entryY=0.5;entryDx=0;entryDy=0;align=center;" edge="1" parent="WIyWlLk6GJQsqaUBKTNV-1" source="QfECR-KnakWeRakG1wzW-31" target="QfECR-KnakWeRakG1wzW-24">
          <mxGeometry relative="1" as="geometry">
            <mxPoint x="770" y="270" as="sourcePoint" />
            <mxPoint x="930" y="270" as="targetPoint" />
          </mxGeometry>
        </mxCell>
        <mxCell id="QfECR-KnakWeRakG1wzW-35" value="N" style="resizable=0;html=1;whiteSpace=wrap;align=right;verticalAlign=bottom;" connectable="0" vertex="1" parent="QfECR-KnakWeRakG1wzW-34">
          <mxGeometry x="1" relative="1" as="geometry">
            <mxPoint x="-69" as="offset" />
          </mxGeometry>
        </mxCell>
        <mxCell id="QfECR-KnakWeRakG1wzW-36" value="user_id" style="ellipse;whiteSpace=wrap;html=1;align=center;" vertex="1" parent="WIyWlLk6GJQsqaUBKTNV-1">
          <mxGeometry x="610" y="125" width="100" height="40" as="geometry" />
        </mxCell>
        <mxCell id="QfECR-KnakWeRakG1wzW-41" value="id" style="ellipse;whiteSpace=wrap;html=1;align=center;fontStyle=4;fillColor=#000000;fontColor=#FFFFFF;" vertex="1" parent="WIyWlLk6GJQsqaUBKTNV-1">
          <mxGeometry x="1150" y="115" width="100" height="40" as="geometry" />
        </mxCell>
        <mxCell id="QfECR-KnakWeRakG1wzW-43" value="name" style="ellipse;whiteSpace=wrap;html=1;align=center;" vertex="1" parent="WIyWlLk6GJQsqaUBKTNV-1">
          <mxGeometry x="1199" y="184" width="100" height="40" as="geometry" />
        </mxCell>
        <mxCell id="QfECR-KnakWeRakG1wzW-44" value="owner" style="ellipse;whiteSpace=wrap;html=1;align=center;" vertex="1" parent="WIyWlLk6GJQsqaUBKTNV-1">
          <mxGeometry x="1279" y="256" width="100" height="40" as="geometry" />
        </mxCell>
        <mxCell id="QfECR-KnakWeRakG1wzW-45" value="profile_picture" style="ellipse;whiteSpace=wrap;html=1;align=center;aspect=fixed;fontSize=10;" vertex="1" parent="WIyWlLk6GJQsqaUBKTNV-1">
          <mxGeometry x="70" y="430" width="80" height="32" as="geometry" />
        </mxCell>
        <mxCell id="QfECR-KnakWeRakG1wzW-48" value="team_icon" style="ellipse;whiteSpace=wrap;html=1;align=center;" vertex="1" parent="WIyWlLk6GJQsqaUBKTNV-1">
          <mxGeometry x="1199" y="325" width="100" height="40" as="geometry" />
        </mxCell>
        <mxCell id="QfECR-KnakWeRakG1wzW-61" style="rounded=0;orthogonalLoop=1;jettySize=auto;html=1;" edge="1" parent="WIyWlLk6GJQsqaUBKTNV-1" source="QfECR-KnakWeRakG1wzW-50" target="QfECR-KnakWeRakG1wzW-60">
          <mxGeometry relative="1" as="geometry" />
        </mxCell>
        <mxCell id="QfECR-KnakWeRakG1wzW-70" style="rounded=0;orthogonalLoop=1;jettySize=auto;html=1;" edge="1" parent="WIyWlLk6GJQsqaUBKTNV-1" source="QfECR-KnakWeRakG1wzW-50" target="QfECR-KnakWeRakG1wzW-69">
          <mxGeometry relative="1" as="geometry" />
        </mxCell>
        <mxCell id="QfECR-KnakWeRakG1wzW-50" value="board" style="whiteSpace=wrap;html=1;dashed=0;" vertex="1" parent="WIyWlLk6GJQsqaUBKTNV-1">
          <mxGeometry x="933" y="500" width="100" height="50" as="geometry" />
        </mxCell>
        <mxCell id="QfECR-KnakWeRakG1wzW-52" value="has" style="shape=rhombus;perimeter=rhombusPerimeter;whiteSpace=wrap;html=1;align=center;" vertex="1" parent="WIyWlLk6GJQsqaUBKTNV-1">
          <mxGeometry x="923" y="370" width="120" height="60" as="geometry" />
        </mxCell>
        <mxCell id="QfECR-KnakWeRakG1wzW-54" value="" style="endArrow=none;html=1;rounded=0;exitX=0.5;exitY=1;exitDx=0;exitDy=0;" edge="1" parent="WIyWlLk6GJQsqaUBKTNV-1" source="QfECR-KnakWeRakG1wzW-24" target="QfECR-KnakWeRakG1wzW-52">
          <mxGeometry relative="1" as="geometry">
            <mxPoint x="993" y="300" as="sourcePoint" />
            <mxPoint x="1153" y="300" as="targetPoint" />
          </mxGeometry>
        </mxCell>
        <mxCell id="QfECR-KnakWeRakG1wzW-55" value="1" style="resizable=0;html=1;whiteSpace=wrap;align=right;verticalAlign=bottom;" connectable="0" vertex="1" parent="QfECR-KnakWeRakG1wzW-54">
          <mxGeometry x="1" relative="1" as="geometry">
            <mxPoint y="-24" as="offset" />
          </mxGeometry>
        </mxCell>
        <mxCell id="QfECR-KnakWeRakG1wzW-56" value="" style="endArrow=none;html=1;rounded=0;exitX=0.5;exitY=1;exitDx=0;exitDy=0;entryX=0.5;entryY=0;entryDx=0;entryDy=0;" edge="1" parent="WIyWlLk6GJQsqaUBKTNV-1" source="QfECR-KnakWeRakG1wzW-52" target="QfECR-KnakWeRakG1wzW-50">
          <mxGeometry relative="1" as="geometry">
            <mxPoint x="943" y="430" as="sourcePoint" />
            <mxPoint x="1103" y="430" as="targetPoint" />
          </mxGeometry>
        </mxCell>
        <mxCell id="QfECR-KnakWeRakG1wzW-57" value="N" style="resizable=0;html=1;whiteSpace=wrap;align=right;verticalAlign=bottom;" connectable="0" vertex="1" parent="QfECR-KnakWeRakG1wzW-56">
          <mxGeometry x="1" relative="1" as="geometry">
            <mxPoint y="-30" as="offset" />
          </mxGeometry>
        </mxCell>
        <mxCell id="QfECR-KnakWeRakG1wzW-58" value="created_at" style="ellipse;whiteSpace=wrap;html=1;align=center;" vertex="1" parent="WIyWlLk6GJQsqaUBKTNV-1">
          <mxGeometry x="1150" y="395" width="100" height="40" as="geometry" />
        </mxCell>
        <mxCell id="QfECR-KnakWeRakG1wzW-60" value="&lt;u&gt;id&lt;/u&gt;" style="ellipse;whiteSpace=wrap;html=1;align=center;fillColor=#000000;fontColor=#FFFFFF;" vertex="1" parent="WIyWlLk6GJQsqaUBKTNV-1">
          <mxGeometry x="770" y="650" width="100" height="40" as="geometry" />
        </mxCell>
        <mxCell id="QfECR-KnakWeRakG1wzW-62" value="&lt;u&gt;id&lt;/u&gt;" style="ellipse;whiteSpace=wrap;html=1;align=center;" vertex="1" parent="WIyWlLk6GJQsqaUBKTNV-1">
          <mxGeometry x="490" y="144" width="100" height="40" as="geometry" />
        </mxCell>
        <mxCell id="QfECR-KnakWeRakG1wzW-63" value="team_id" style="ellipse;whiteSpace=wrap;html=1;align=center;" vertex="1" parent="WIyWlLk6GJQsqaUBKTNV-1">
          <mxGeometry x="730" y="125" width="100" height="40" as="geometry" />
        </mxCell>
        <mxCell id="QfECR-KnakWeRakG1wzW-66" value="level" style="ellipse;whiteSpace=wrap;html=1;align=center;" vertex="1" parent="WIyWlLk6GJQsqaUBKTNV-1">
          <mxGeometry x="850" y="144" width="100" height="40" as="geometry" />
        </mxCell>
        <mxCell id="QfECR-KnakWeRakG1wzW-69" value="created_at" style="ellipse;whiteSpace=wrap;html=1;align=center;" vertex="1" parent="WIyWlLk6GJQsqaUBKTNV-1">
          <mxGeometry x="1060" y="650" width="100" height="40" as="geometry" />
        </mxCell>
      </root>
    </mxGraphModel>
  </diagram>
</mxfile>
